<svg xmlns="http://www.w3.org/2000/svg" viewBox="0 0 137.04 28"><path d="M48.09 3.1a9.5 9.5 0 0 1 5.48 1.36 4.65 4.65 0 0 1 1.97 4.09 4.32 4.32 0 0 1-.73 2.47 4.42 4.42 0 0 1-2.13 1.63 4.22 4.22 0 0 1 2.69 1.64 4.9 4.9 0 0 1 .9 2.91 5.15 5.15 0 0 1-1.9 4.33A8.53 8.53 0 0 1 49.04 23h-9.79v-2.4l2.12-.4V5.9l-2.12-.41V3.1h8.85zm-2.73 8.33h2.87a4 4 0 0 0 2.46-.65 2.26 2.26 0 0 0 .86-1.92 2.39 2.39 0 0 0-.87-2.03 4.27 4.27 0 0 0-2.59-.66h-2.73zm0 2.77v5.74h3.67a3.71 3.71 0 0 0 2.42-.7 2.5 2.5 0 0 0 .84-2.04 3.19 3.19 0 0 0-.71-2.23 2.91 2.91 0 0 0-2.25-.77zM66.89 3.1v2.4l-2.14.41v10.4a3.82 3.82 0 0 0 1.06 2.94 4.12 4.12 0 0 0 2.91.97 4.2 4.2 0 0 0 2.94-.97 3.8 3.8 0 0 0 1.07-2.95V5.91L70.6 5.5V3.1h8.24v2.4l-2.13.41v10.4a6.32 6.32 0 0 1-2.21 5.16 8.82 8.82 0 0 1-5.79 1.82 8.74 8.74 0 0 1-5.76-1.82 6.33 6.33 0 0 1-2.2-5.17V5.91l-2.12-.41V3.1h8.25zm14.26 17.5l2.12-.4V5.9l-2.12-.41V3.1h8.13v2.4l-2.02.41v5.32h1.73l3.83-5.57-1.17-.16V3.1h7.89v2.4l-2.17.37-4.89 6.53 5.5 7.87 2 .34V23h-7.9v-2.4l1.23-.16-3.82-5.75h-2.23v5.5l2.02.42V23h-8.13z" fill="#fefefe"/><path d="M115.13 14.25h-6.74v5.69h6.43l.18-2.38h3.03V23h-15.75v-2.4l2.12-.4V5.9l-2.12-.41V3.1H118v5.45h-3.06l-.18-2.38h-6.37v5h6.74zm19.01 0h-6.74v5.69h6.42l.18-2.38h3.04V23h-15.75v-2.4l2.11-.4V5.9l-2.11-.41V3.1H137v5.45h-3.06l-.18-2.38h-6.37v5h6.74zM28 28L0 0h28z" fill="#65e496"/><path d="M28 0L0 28V0z" fill="#80809b"/></svg>